#tb 0: 1/25
#media_type 0: video
#codec_id 0: rawvideo
#dimensions 0: 720x480
#sar 0: 0/1
0,          0,          0,        1,   518400, 0xd9444d71
0,          1,          1,        1,   518400, 0x491faf75
0,          2,          2,        1,   518400, 0xf8b4d15c
0,          3,          3,        1,   518400, 0x99d9f60c
0,          4,          4,        1,   518400, 0x46c17a6d
0,          5,          5,        1,   518400, 0x30b9447d
0,          6,          6,        1,   518400, 0x135d0c76
0,          7,          7,        1,   518400, 0x1b831a3c
0,          8,          8,        1,   518400, 0x5910def8
0,          9,          9,        1,   518400, 0x8db90147
0,         10,         10,        1,   518400, 0x6a2b79c7
0,         11,         11,        1,   518400, 0xc8d302e5
0,         12,         12,        1,   518400, 0x515bb024
0,         13,         13,        1,   518400, 0xedf7836c
0,         14,         14,        1,   518400, 0x7e247b9d
0,         15,         15,        1,   518400, 0x10c9bb10
0,         16,         16,        1,   518400, 0xe38e2807
